<svg xmlns="http://www.w3.org/2000/svg" xmlns:xlink="http://www.w3.org/1999/xlink" version="1.1" x="0px" y="0px" viewBox="0 0 512 640" style="enable-background:new 0 0 512 512;" xml:space="preserve"><g><g><path d="M71,366c-8.271,0-15,6.729-15,15s6.729,15,15,15s15-6.729,15-15S79.271,366,71,366z"/><path d="M436,326c-11.028,0-20,8.972-20,20s8.972,20,20,20s20-8.972,20-20S447.028,326,436,326z"/><path d="M191,106h90c2.762,0,5-2.239,5-5s-2.238-5-5-5h-90c-2.761,0-5,2.239-5,5S188.239,106,191,106z"/><path d="M191,76h90c2.762,0,5-2.239,5-5s-2.238-5-5-5h-90c-2.761,0-5,2.239-5,5S188.239,76,191,76z"/><path d="M274.077,396h-76.154c-2.761,0-5,2.238-5,5s2.239,5,5,5h76.154c2.762,0,5-2.238,5-5S276.839,396,274.077,396z"/><path d="M274.077,426h-76.154c-2.761,0-5,2.238-5,5s2.239,5,5,5h76.154c2.762,0,5-2.238,5-5S276.839,426,274.077,426z"/><path d="M381,126c1.31,0,2.6-0.53,3.53-1.46c0.939-0.93,1.47-2.22,1.47-3.54c0-1.32-0.53-2.6-1.47-3.54    C383.6,116.53,382.31,116,381,116c-1.311,0-2.601,0.53-3.54,1.46c-0.93,0.93-1.46,2.22-1.46,3.54c0,1.32,0.53,2.61,1.46,3.53    C378.399,125.47,379.68,126,381,126z"/><path d="M131,146c1.32,0,2.61-0.53,3.54-1.46c0.93-0.93,1.46-2.22,1.46-3.54c0-1.32-0.53-2.6-1.46-3.54    c-0.94-0.93-2.22-1.46-3.54-1.46c-1.32,0-2.6,0.53-3.53,1.46c-0.94,0.94-1.47,2.22-1.47,3.54c0,1.32,0.53,2.61,1.47,3.54    C128.4,145.47,129.68,146,131,146z"/><path d="M81,286c-1.32,0-2.6,0.53-3.54,1.46C76.53,288.39,76,289.68,76,291c0,1.319,0.53,2.609,1.46,3.54    C78.4,295.47,79.68,296,81,296c1.32,0,2.6-0.53,3.54-1.46C85.47,293.6,86,292.319,86,291c0-1.32-0.53-2.601-1.46-3.54    C83.6,286.53,82.32,286,81,286z"/><path d="M71,116c1.31,0,2.6-0.53,3.54-1.46C75.47,113.6,76,112.31,76,111c0-1.32-0.53-2.6-1.46-3.53    C73.61,106.53,72.32,106,71,106c-1.32,0-2.61,0.53-3.53,1.46C66.53,108.39,66,109.68,66,111c0,1.32,0.53,2.61,1.47,3.54    C68.4,115.47,69.68,116,71,116z"/><path d="M401,96c1.319,0,2.6-0.53,3.53-1.46C405.47,93.6,406,92.32,406,91c0-1.32-0.53-2.6-1.47-3.54    C403.6,86.53,402.319,86,401,86c-1.32,0-2.601,0.53-3.54,1.46C396.53,88.39,396,89.68,396,91c0,1.32,0.53,2.61,1.46,3.54    C398.399,95.47,399.689,96,401,96z"/><path d="M421,196c1.319,0,2.6-0.53,3.53-1.46c0.939-0.94,1.47-2.221,1.47-3.54c0-1.32-0.53-2.61-1.47-3.54    c-0.921-0.93-2.211-1.46-3.53-1.46c-1.32,0-2.61,0.53-3.54,1.46S416,189.68,416,191c0,1.319,0.53,2.6,1.46,3.54    C418.399,195.47,419.68,196,421,196z"/><path d="M381,366c-1.32,0-2.61,0.53-3.54,1.46S376,369.68,376,371c0,1.319,0.53,2.6,1.46,3.53c0.939,0.939,2.22,1.47,3.54,1.47    c1.31,0,2.6-0.53,3.53-1.47C385.47,373.6,386,372.31,386,371c0-1.32-0.53-2.601-1.47-3.54C383.6,366.53,382.319,366,381,366z"/><path d="M267.23,351c30.471-10.042,54.514-34.357,64.17-65H421c2.762,0,5-2.238,5-5s-2.238-5-5-5h-87.011    c1.317-6.464,2.011-13.152,2.011-20c0-44.238-28.877-81.853-68.77-95C307.123,147.853,336,110.238,336,66c0-2.761-2.238-5-5-5    s-5,2.239-5,5c0,49.626-40.374,90-90,90s-90-40.374-90-90c0-2.761-2.239-5-5-5s-5,2.239-5,5c0,44.238,28.877,81.853,68.77,95    c-27.073,8.923-49.068,29.115-60.411,55H61c-2.761,0-5,2.239-5,5s2.239,5,5,5h79.6c-2.986,9.475-4.6,19.552-4.6,30    c0,44.238,28.877,81.853,68.77,95C164.877,364.147,136,401.762,136,446c0,2.762,2.239,5,5,5s5-2.238,5-5c0-49.626,40.374-90,90-90    s90,40.374,90,90c0,2.762,2.238,5,5,5s5-2.238,5-5C336,401.762,307.123,364.147,267.23,351z M298.951,320.253    c1.584-1.553,3.112-3.163,4.579-4.828C302.063,317.09,300.536,318.7,298.951,320.253z M303.582,315.366    c2.237-2.544,4.334-5.216,6.277-8.002C307.916,310.15,305.82,312.822,303.582,315.366z M186,281c0-2.762,2.239-5,5-5h132.757    c0.176-0.773,0.341-1.55,0.497-2.33c-0.844,4.224-1.987,8.341-3.401,12.33H191C188.239,286,186,283.762,186,281z M286,221    c0,2.761-2.238,5-5,5H151.148c-1.236,3.485-2.261,7.068-3.065,10.734c1.594-7.278,4.069-14.228,7.311-20.734H281    C283.762,216,286,218.239,286,221z M286,251c0,2.762-2.238,5-5,5h-90c-2.761,0-5-2.238-5-5s2.239-5,5-5h90    C283.762,246,286,248.238,286,251z M309.892,307.317c1.292-1.854,2.517-3.761,3.669-5.714    C312.408,303.557,311.185,305.463,309.892,307.317z M313.576,301.578c2.896-4.909,5.338-10.116,7.271-15.562    C318.914,291.463,316.472,296.668,313.576,301.578z M325.965,258.455C325.987,257.64,326,256.821,326,256    C326,256.821,325.987,257.64,325.965,258.455z M324.322,273.312c0.129-0.658,0.252-1.319,0.366-1.982    C324.574,271.992,324.451,272.653,324.322,273.312z M324.781,270.769c0.1-0.599,0.193-1.198,0.281-1.801    C324.975,269.57,324.881,270.17,324.781,270.769z M325.158,268.283c0.077-0.562,0.148-1.126,0.215-1.69    C325.307,267.157,325.235,267.721,325.158,268.283z M325.463,265.817c0.059-0.54,0.111-1.083,0.16-1.626    C325.574,264.734,325.521,265.277,325.463,265.817z M325.697,263.361c0.044-0.536,0.08-1.075,0.114-1.614    C325.777,262.286,325.741,262.825,325.697,263.361z M325.864,260.91c0.031-0.566,0.053-1.136,0.072-1.705    C325.917,259.774,325.896,260.344,325.864,260.91z M173.508,191.299c-0.723,0.698-1.433,1.408-2.131,2.129    C172.075,192.707,172.785,191.997,173.508,191.299z M236,166c-0.982,0-1.96,0.021-2.936,0.053C234.04,166.021,235.018,166,236,166    z M232.263,166.083c-0.805,0.033-1.608,0.076-2.407,0.13C230.655,166.16,231.458,166.117,232.263,166.083z M229.302,166.249    c-0.958,0.071-1.91,0.158-2.859,0.259C227.392,166.407,228.344,166.32,229.302,166.249z M225.76,166.586    c-0.768,0.087-1.533,0.185-2.295,0.292C224.227,166.771,224.992,166.673,225.76,166.586z M222.755,166.977    c-0.942,0.14-1.881,0.291-2.813,0.46C220.875,167.268,221.813,167.116,222.755,166.977z M219.554,167.511    c-0.82,0.152-1.635,0.316-2.447,0.49C217.919,167.827,218.734,167.663,219.554,167.511z M216.384,168.159    c-0.876,0.196-1.75,0.401-2.616,0.622C214.634,168.56,215.507,168.355,216.384,168.159z M213.618,168.818    c-0.924,0.237-1.84,0.493-2.752,0.758C211.778,169.311,212.694,169.055,213.618,168.818z M210.226,169.767    c-0.767,0.229-1.529,0.469-2.288,0.718C208.696,170.236,209.458,169.997,210.226,169.767z M207.465,170.639    c-0.901,0.302-1.796,0.618-2.685,0.948C205.668,171.257,206.563,170.941,207.465,170.639z M204.348,171.751    c-0.767,0.289-1.528,0.588-2.285,0.898C202.82,172.34,203.582,172.041,204.348,171.751z M201.53,172.868    c-1.765,0.735-3.501,1.524-5.208,2.366C198.029,174.392,199.765,173.602,201.53,172.868z M195.835,175.476    c-0.832,0.417-1.658,0.843-2.475,1.284C194.177,176.319,195.003,175.893,195.835,175.476z M193.328,176.777    c-0.863,0.466-1.715,0.949-2.561,1.442C191.612,177.726,192.465,177.244,193.328,176.777z M190.432,178.418    c-0.76,0.448-1.514,0.907-2.26,1.377C188.918,179.325,189.672,178.866,190.432,178.418z M187.925,179.95    c-0.837,0.531-1.666,1.075-2.484,1.632C186.259,181.024,187.087,180.48,187.925,179.95z M185.398,181.611    c-0.786,0.536-1.561,1.086-2.329,1.646C183.837,182.698,184.612,182.147,185.398,181.611z M182.798,183.457    c-1.583,1.164-3.126,2.378-4.628,3.641C179.672,185.835,181.215,184.621,182.798,183.457z M177.979,187.259    c-1.526,1.291-3.01,2.629-4.447,4.017C174.969,189.888,176.453,188.549,177.979,187.259z M167.204,198.043    c-4.612,5.467-8.587,11.489-11.807,17.95C158.618,209.532,162.591,203.511,167.204,198.043z M171.337,193.469    c-1.408,1.455-2.766,2.958-4.074,4.504C168.572,196.426,169.93,194.924,171.337,193.469z M146.077,252.436    C146.03,253.619,146,254.806,146,256C146,254.806,146.031,253.619,146.077,252.436z M148.035,236.954    c-0.256,1.182-0.49,2.371-0.699,3.57C147.545,239.325,147.779,238.136,148.035,236.954z M147.309,240.688    c-0.209,1.212-0.396,2.432-0.555,3.66C146.913,243.119,147.1,241.9,147.309,240.688z M146.75,244.368    c-0.151,1.167-0.275,2.342-0.381,3.522C146.476,246.709,146.599,245.534,146.75,244.368z M146.32,248.438    c-0.095,1.133-0.169,2.272-0.221,3.417C146.151,250.711,146.226,249.572,146.32,248.438z M239.254,345.935    C238.173,345.974,237.09,346,236,346C237.09,346,238.173,345.974,239.254,345.935z M298.79,320.41    c-1.561,1.522-3.177,2.988-4.845,4.395C295.613,323.398,297.229,321.933,298.79,320.41z M293.743,324.976    c-0.832,0.698-1.676,1.383-2.533,2.051C292.067,326.358,292.911,325.674,293.743,324.976z M291.112,327.101    c-0.842,0.654-1.696,1.294-2.562,1.919C289.416,328.395,290.271,327.755,291.112,327.101z M288.399,329.13    c-0.866,0.622-1.745,1.229-2.634,1.82C286.654,330.358,287.533,329.752,288.399,329.13z M285.452,331.157    c-1.772,1.17-3.588,2.278-5.444,3.324C281.864,333.436,283.68,332.327,285.452,331.157z M279.586,334.717    c-0.925,0.515-1.857,1.017-2.802,1.499C277.729,335.733,278.661,335.231,279.586,334.717z M276.725,336.245    c-0.917,0.468-1.845,0.916-2.779,1.352C274.88,337.161,275.808,336.713,276.725,336.245z M273.493,337.809    c-0.938,0.432-1.886,0.85-2.842,1.25C271.607,338.658,272.555,338.24,273.493,337.809z M270.243,339.226    c-0.89,0.367-1.787,0.722-2.691,1.061C268.456,339.947,269.354,339.593,270.243,339.226z M267.185,340.427    c-0.966,0.357-1.94,0.697-2.921,1.022C265.244,341.124,266.219,340.784,267.185,340.427z M263.686,341.637    c-0.979,0.318-1.965,0.624-2.96,0.909C261.721,342.261,262.706,341.955,263.686,341.637z M260.67,342.563    c-1.004,0.286-2.017,0.55-3.034,0.802C258.653,343.112,259.666,342.849,260.67,342.563z M256.982,343.524    c-1.007,0.241-2.02,0.47-3.04,0.677C254.963,343.994,255.975,343.766,256.982,343.524z M253.597,344.268    c-0.942,0.188-1.891,0.358-2.844,0.517C251.706,344.626,252.654,344.455,253.597,344.268z M250.134,344.887    c-1.022,0.162-2.049,0.307-3.083,0.435C248.084,345.193,249.112,345.049,250.134,344.887z M246.443,345.391    c-0.945,0.109-1.895,0.206-2.849,0.286C244.549,345.597,245.498,345.5,246.443,345.391z M243.133,345.718    c-1.048,0.082-2.101,0.144-3.158,0.189C241.032,345.861,242.085,345.8,243.133,345.718z"/></g></g><text x="0" y="527" fill="#000000" font-size="5px" font-weight="bold" font-family="'Helvetica Neue', Helvetica, Arial-Unicode, Arial, Sans-serif">Created by Flatart</text><text x="0" y="532" fill="#000000" font-size="5px" font-weight="bold" font-family="'Helvetica Neue', Helvetica, Arial-Unicode, Arial, Sans-serif">from the Noun Project</text></svg>